<svg width="189" height="39" viewBox="0 0 189 39" fill="none" xmlns="http://www.w3.org/2000/svg">
<path d="M0.672 38L0.336 36.08C1.552 35.76 2.288 35.504 2.544 35.312C2.832 35.12 3.104 34.688 3.36 34.016L14.112 4.304H18.096L29.088 34.784C29.248 35.264 30.192 35.664 31.92 35.984L31.728 38H20.544L20.256 36.08C22.496 35.632 23.616 35.104 23.616 34.496C23.616 34.24 23.552 33.904 23.424 33.488L21.312 27.248H8.88L6.432 34.064C6.304 34.448 6.24 34.72 6.24 34.88C6.24 35.008 6.336 35.088 6.528 35.12L9.936 36.032L9.744 38H0.672ZM9.792 24.704H20.496L15.792 11.216C15.568 10.544 15.456 10.08 15.456 9.824H14.976L9.792 24.704ZM34.0763 38L33.7883 36.128C35.3563 35.808 36.3003 35.488 36.6203 35.168C36.9723 34.816 37.1483 34.224 37.1483 33.392V5.504C37.1483 4.832 36.8923 4.352 36.3803 4.064C35.8683 3.744 34.9083 3.44 33.5003 3.152L33.7883 1.616C37.2123 1.168 39.5963 0.943999 40.9403 0.943999L41.4683 1.424V26.912L49.7243 19.184C49.9803 18.896 50.1083 18.624 50.1083 18.368C50.1083 17.888 49.0043 17.488 46.7963 17.168L47.0843 15.296H56.6363L56.8282 17.168C55.3563 17.392 54.4763 17.648 54.1883 17.936L47.6123 24.224L54.5723 34.16C55.0843 34.8 55.6443 35.264 56.2523 35.552C56.8923 35.84 57.8043 36.032 58.9883 36.128L58.7003 38H52.0283L44.5883 27.152L41.4683 30.128V34.544C41.4683 34.928 41.5483 35.184 41.7083 35.312C41.9003 35.408 42.1403 35.488 42.4283 35.552L44.5403 36.128L44.3483 38H34.0763ZM70.2364 17.12C67.4204 17.12 66.0124 18.08 66.0124 20C66.0124 20.768 66.2044 21.344 66.5884 21.728C66.9724 22.08 67.2444 22.352 67.4044 22.544C67.5964 22.704 67.9484 22.912 68.4604 23.168C68.9724 23.424 69.3244 23.616 69.5164 23.744C69.7404 23.84 70.1724 24.016 70.8124 24.272C73.5004 25.392 75.3884 26.448 76.4764 27.44C77.5644 28.432 78.1084 29.84 78.1084 31.664C78.1084 33.488 77.2924 35.072 75.6604 36.416C74.0604 37.76 71.8524 38.432 69.0364 38.432C67.7884 38.432 66.4924 38.304 65.1484 38.048C63.8044 37.792 62.8284 37.536 62.2204 37.28C62.1564 36.864 62.1244 36.016 62.1244 34.736C62.1244 33.456 62.2684 32.064 62.5564 30.56L65.0524 30.368C65.2764 32.416 65.4364 33.68 65.5324 34.16C65.6604 34.608 65.8364 34.896 66.0604 35.024C67.0844 35.6 68.4284 35.888 70.0924 35.888C72.6844 35.888 73.9804 34.848 73.9804 32.768C73.9804 31.776 73.5964 30.96 72.8284 30.32C71.9644 29.616 70.9724 29.024 69.8524 28.544C66.9084 27.328 64.8924 26.224 63.8044 25.232C62.7484 24.208 62.2204 22.8 62.2204 21.008C62.2204 19.216 63.0364 17.696 64.6684 16.448C66.3004 15.2 68.2684 14.576 70.5724 14.576C72.8764 14.576 74.9884 14.976 76.9084 15.776C76.9404 16.032 76.9564 16.752 76.9564 17.936C76.9564 19.12 76.7484 20.368 76.3324 21.68L74.1244 21.92C73.9004 19.424 73.5324 18 73.0204 17.648C72.5404 17.296 71.6124 17.12 70.2364 17.12ZM82.3575 38L82.0695 36.128C83.6375 35.808 84.5815 35.488 84.9015 35.168C85.2535 34.816 85.4295 34.224 85.4295 33.392V5.504C85.4295 4.832 85.1735 4.352 84.6615 4.064C84.1495 3.744 83.1895 3.44 81.7815 3.152L82.0695 1.616C85.4935 1.168 87.8775 0.943999 89.2215 0.943999L89.7495 1.424V14.912C89.7495 16.672 89.6375 17.92 89.4135 18.656L89.7975 18.8L90.3735 18.128C92.3575 15.76 94.8375 14.576 97.8135 14.576C99.9575 14.576 101.622 15.2 102.806 16.448C104.022 17.696 104.63 19.408 104.63 21.584V34.544C104.63 34.928 104.71 35.184 104.87 35.312C105.062 35.408 105.302 35.488 105.59 35.552L107.942 36.128L107.75 38H97.4775L97.1895 36.128C98.6295 35.84 99.5095 35.52 99.8295 35.168C100.15 34.816 100.31 34.224 100.31 33.392V23.024C100.31 21.488 100.022 20.272 99.4455 19.376C98.9015 18.48 97.7815 18.032 96.0855 18.032C94.4215 18.032 92.6775 18.656 90.8535 19.904C90.4375 20.192 90.1495 20.48 89.9895 20.768C89.8295 21.024 89.7495 21.504 89.7495 22.208V34.544C89.7495 34.928 89.8295 35.184 89.9895 35.312C90.1815 35.408 90.4215 35.488 90.7095 35.552L92.8215 36.128L92.6295 38H82.3575ZM111.047 32.096C111.047 29.696 112.071 27.904 114.119 26.72C116.167 25.536 119.495 24.928 124.103 24.896V23.36C124.103 19.2 122.599 17.12 119.591 17.12C118.151 17.12 117.239 17.328 116.855 17.744C116.503 18.16 116.119 19.52 115.703 21.824L113.111 21.536C112.855 20.544 112.727 19.52 112.727 18.464C112.727 17.376 112.743 16.672 112.775 16.352C114.663 15.168 117.143 14.576 120.215 14.576C123.287 14.576 125.415 15.168 126.599 16.352C127.815 17.536 128.423 19.488 128.423 22.208V33.248C128.423 34.08 128.615 34.672 128.999 35.024C129.415 35.344 130.439 35.664 132.071 35.984L131.783 37.52L126.023 38.144C125.703 38.144 125.367 37.84 125.015 37.232C124.663 36.624 124.487 36.064 124.487 35.552C124.487 35.008 124.503 34.608 124.535 34.352L124.151 34.208L123.575 35.072C122.071 37.312 120.007 38.432 117.383 38.432C115.591 38.432 114.087 37.872 112.871 36.752C111.655 35.632 111.047 34.08 111.047 32.096ZM115.703 31.664C115.703 32.816 116.007 33.696 116.615 34.304C117.223 34.88 118.087 35.168 119.207 35.168C120.327 35.168 121.591 34.624 122.999 33.536C123.735 32.96 124.103 32.352 124.103 31.712V27.008C121.223 27.072 119.095 27.456 117.719 28.16C116.375 28.864 115.703 30.032 115.703 31.664ZM135.514 38L135.226 36.128C136.922 35.84 137.962 35.52 138.346 35.168C138.73 34.816 138.922 34.224 138.922 33.392V19.568C138.922 18.736 138.698 18.144 138.25 17.792C137.834 17.408 136.73 17.088 134.938 16.832L135.226 15.296L141.754 14.672C141.978 14.672 142.218 14.992 142.474 15.632C142.73 16.272 142.858 16.944 142.858 17.648C142.858 18.32 142.794 19.104 142.666 20L143.05 20.144L143.674 18.752C144.25 17.472 145.114 16.464 146.266 15.728C147.45 14.96 148.634 14.576 149.818 14.576C151.034 14.576 152.154 14.832 153.178 15.344C153.178 17.968 152.938 20.592 152.458 23.216L150.106 23.456C149.85 20.768 149.594 19.248 149.338 18.896C149.082 18.512 148.65 18.32 148.042 18.32C147.466 18.32 146.778 18.592 145.978 19.136C145.178 19.648 144.522 20.208 144.01 20.816C143.498 21.392 143.242 22.352 143.242 23.696V34.544C143.242 34.96 143.322 35.232 143.482 35.36C143.674 35.456 143.914 35.52 144.202 35.552L148.57 36.128L148.378 38H135.514ZM156.329 32.096C156.329 29.696 157.353 27.904 159.401 26.72C161.449 25.536 164.777 24.928 169.385 24.896V23.36C169.385 19.2 167.881 17.12 164.873 17.12C163.433 17.12 162.521 17.328 162.137 17.744C161.785 18.16 161.401 19.52 160.985 21.824L158.393 21.536C158.137 20.544 158.009 19.52 158.009 18.464C158.009 17.376 158.025 16.672 158.057 16.352C159.945 15.168 162.425 14.576 165.497 14.576C168.569 14.576 170.697 15.168 171.881 16.352C173.097 17.536 173.705 19.488 173.705 22.208V33.248C173.705 34.08 173.897 34.672 174.281 35.024C174.697 35.344 175.721 35.664 177.353 35.984L177.065 37.52L171.305 38.144C170.985 38.144 170.649 37.84 170.297 37.232C169.945 36.624 169.769 36.064 169.769 35.552C169.769 35.008 169.785 34.608 169.817 34.352L169.433 34.208L168.857 35.072C167.353 37.312 165.289 38.432 162.665 38.432C160.873 38.432 159.369 37.872 158.153 36.752C156.937 35.632 156.329 34.08 156.329 32.096ZM160.985 31.664C160.985 32.816 161.289 33.696 161.897 34.304C162.505 34.88 163.369 35.168 164.489 35.168C165.609 35.168 166.873 34.624 168.281 33.536C169.017 32.96 169.385 32.352 169.385 31.712V27.008C166.505 27.072 164.377 27.456 163.001 28.16C161.657 28.864 160.985 30.032 160.985 31.664Z" fill="white"/>
<path d="M185.489 38.2727C184.648 38.2727 183.926 37.9716 183.324 37.3693C182.722 36.767 182.42 36.0455 182.42 35.2045C182.42 34.3636 182.722 33.642 183.324 33.0398C183.926 32.4375 184.648 32.1364 185.489 32.1364C186.33 32.1364 187.051 32.4375 187.653 33.0398C188.256 33.642 188.557 34.3636 188.557 35.2045C188.557 35.7614 188.415 36.2727 188.131 36.7386C187.858 37.2045 187.489 37.5795 187.023 37.8636C186.568 38.1364 186.057 38.2727 185.489 38.2727Z" fill="#FF0000"/>
</svg>